<?xml version="1.0" standalone="no"?>
<!DOCTYPE svg PUBLIC "-//W3C//DTD SVG 20010904//EN"
 "http://www.w3.org/TR/2001/REC-SVG-20010904/DTD/svg10.dtd">
<svg version="1.0" xmlns="http://www.w3.org/2000/svg"
 width="200.000000pt" height="200.000000pt" viewBox="0 0 200.000000 200.000000"
 preserveAspectRatio="xMidYMid meet">
<metadata>
Created by potrace 1.11, written by Peter Selinger 2001-2013
</metadata>
<g transform="translate(0.000000,200.000000) scale(0.100000,-0.100000)"
fill="#000000" stroke="none">
<path d="M200 926 l0 -516 228 0 c245 0 334 9 397 41 133 68 197 219 151 357
-19 55 -78 118 -133 141 l-32 13 53 52 c63 59 81 109 73 197 -9 98 -52 160
-142 201 -48 22 -63 23 -322 26 l-273 3 0 -515z m522 380 c52 -25 78 -71 78
-137 0 -70 -26 -114 -83 -139 -36 -17 -66 -20 -214 -20 l-173 0 0 161 0 161
178 -4 c145 -3 184 -7 214 -22z m43 -442 c58 -30 85 -75 85 -141 0 -67 -18
-111 -59 -146 -48 -40 -90 -47 -283 -47 l-178 0 0 181 0 180 198 -3 c177 -3
201 -5 237 -24z"/>
<path d="M1090 925 l0 -515 238 0 c248 0 343 11 399 46 48 30 104 87 125 129
26 49 35 154 18 213 -14 53 -75 122 -129 147 l-40 18 54 51 c58 56 75 96 75
181 0 62 -35 141 -78 177 -18 15 -57 36 -87 47 -51 19 -77 21 -315 21 l-260 0
0 -515z m525 378 c53 -28 75 -68 75 -135 0 -69 -26 -113 -83 -138 -36 -17 -66
-20 -214 -20 l-173 0 0 153 c0 85 3 157 8 161 4 5 84 6 177 4 147 -4 175 -7
210 -25z m36 -440 c64 -33 89 -74 89 -146 0 -88 -48 -154 -128 -177 -20 -5
-117 -10 -214 -10 l-178 0 0 180 0 180 188 0 c186 0 189 0 243 -27z"/>
</g>
</svg>
